<?xml version="1.0" standalone="no"?>
<!DOCTYPE svg PUBLIC "-//W3C//DTD SVG 20010904//EN"
 "http://www.w3.org/TR/2001/REC-SVG-20010904/DTD/svg10.dtd">
<svg version="1.0" xmlns="http://www.w3.org/2000/svg"
 width="2400.000000pt" height="2400.000000pt" viewBox="0 0 2400.000000 2400.000000"
 preserveAspectRatio="xMidYMid meet">

<g transform="translate(0.000000,2400.000000) scale(0.100000,-0.100000)"
fill="#000000" stroke="none">
<path d="M11793 18655 c-84 -18 -127 -41 -523 -277 -382 -227 -1095 -649
-1435 -851 -121 -71 -263 -155 -315 -187 -52 -31 -185 -110 -295 -175 -110
-65 -330 -196 -490 -290 -159 -95 -411 -244 -560 -332 -433 -257 -852 -506
-960 -570 -55 -33 -138 -82 -185 -110 -290 -170 -459 -270 -640 -378 -113 -67
-340 -202 -505 -300 -165 -98 -426 -253 -580 -345 -154 -92 -307 -183 -340
-202 -170 -99 -1077 -637 -1265 -751 -169 -102 -200 -138 -200 -237 0 -67 -22
-64 404 -57 l386 7 52 26 c29 15 91 50 138 79 47 29 195 117 330 197 330 196
1491 885 1715 1018 99 59 302 179 450 267 149 88 416 247 595 353 179 106 372
221 430 255 58 34 177 104 265 157 88 52 284 168 435 258 151 89 385 228 520
308 135 80 295 175 355 210 61 36 164 98 230 137 66 40 188 112 270 160 83 49
254 150 380 226 388 231 1253 742 1392 823 58 34 88 46 103 41 12 -4 94 -51
183 -104 89 -54 218 -131 287 -171 69 -40 157 -92 195 -115 39 -23 108 -65
155 -92 47 -27 213 -126 370 -220 157 -93 364 -216 460 -273 96 -56 256 -151
355 -210 99 -59 279 -166 400 -237 378 -224 709 -419 1010 -598 160 -95 414
-245 565 -335 513 -304 725 -429 1470 -872 810 -482 1222 -726 1325 -786 61
-35 153 -90 205 -122 52 -31 174 -103 270 -160 96 -56 203 -120 236 -142 34
-21 77 -43 95 -48 19 -6 203 -10 425 -10 441 0 422 -3 410 73 -9 55 -39 97
-95 135 -25 16 -257 155 -516 307 -258 153 -551 326 -650 385 -542 322 -1239
736 -1600 950 -225 133 -468 277 -540 320 -71 42 -240 142 -375 222 -135 80
-402 239 -595 353 -192 115 -411 244 -485 288 -74 44 -216 128 -315 187 -99
59 -272 161 -385 227 -113 66 -272 160 -355 210 -184 110 -612 364 -915 543
-124 73 -245 145 -270 160 -25 15 -146 87 -270 160 -124 74 -331 196 -460 273
-313 188 -385 225 -467 242 -84 18 -197 18 -280 0z"/>
<path d="M16280 14233 c-174 -18 -415 -108 -573 -214 -92 -62 -246 -221 -310
-319 -118 -182 -215 -407 -278 -640 -25 -91 -79 -401 -79 -451 0 -20 -6 -42
-13 -48 -9 -7 -114 -12 -318 -13 l-304 -3 -3 -75 c-4 -91 14 -142 66 -193 61
-60 99 -68 347 -76 280 -10 277 -8 376 -171 95 -158 230 -446 494 -1060 135
-313 249 -544 280 -568 54 -43 277 -70 304 -38 24 28 -10 217 -64 362 -50 132
-150 309 -485 859 -85 139 -128 228 -170 353 -39 118 -39 137 3 152 17 6 140
18 272 26 655 39 662 39 790 76 80 23 147 58 170 90 20 30 19 96 -3 133 -36
59 -45 60 -321 45 -200 -11 -282 -11 -413 -1 -223 16 -325 28 -448 53 -116 22
-151 34 -162 51 -4 7 -8 100 -8 207 0 170 3 209 24 300 58 254 181 462 365
613 190 157 377 235 606 252 121 9 170 -4 285 -75 118 -73 196 -110 234 -110
28 0 28 0 24 55 -9 113 -115 271 -235 351 -100 66 -166 84 -301 82 -64 0 -133
-3 -152 -5z"/>
<path d="M5765 14174 c-150 -29 -307 -135 -394 -265 -50 -75 -98 -197 -106
-274 -9 -79 26 -354 80 -635 8 -41 28 -145 44 -230 150 -779 347 -1424 518
-1697 92 -147 139 -183 240 -183 211 0 515 184 731 444 198 238 314 491 328
715 13 197 -28 332 -133 442 -74 77 -154 125 -321 190 -74 28 -136 57 -138 64
-3 7 17 46 44 86 109 165 149 264 172 423 38 267 -69 516 -305 711 -213 175
-512 258 -760 209z m428 -326 c74 -35 156 -113 196 -188 135 -252 79 -629
-129 -878 -53 -64 -163 -152 -244 -196 -61 -34 -186 -76 -224 -76 -26 0 -32 6
-55 58 -46 101 -57 222 -57 605 0 189 3 406 7 481 l6 137 46 23 c43 21 73 31
161 55 19 6 80 9 135 8 85 -2 109 -6 158 -29z m514 -1443 c122 -37 186 -124
192 -262 4 -97 -9 -143 -80 -285 -133 -268 -314 -494 -441 -553 -64 -30 -78
-31 -127 -5 -61 31 -126 114 -190 245 -86 174 -134 327 -135 435 -1 75 2 91
27 140 74 142 248 256 452 296 85 16 230 11 302 -11z"/>
<path d="M11455 13938 c-42 -15 -84 -56 -106 -103 -29 -63 -25 -212 12 -456
17 -112 33 -217 36 -234 25 -175 121 -717 169 -950 9 -44 20 -100 24 -125 11
-60 52 -246 89 -400 79 -337 170 -606 247 -727 44 -70 60 -77 135 -61 135 28
143 113 40 429 -76 234 -103 409 -63 409 10 0 54 -17 98 -38 43 -22 129 -60
189 -86 61 -26 124 -53 140 -61 113 -49 342 -118 472 -141 136 -25 307 -25
351 -1 43 24 62 70 62 150 0 79 -20 104 -107 131 -32 10 -193 68 -358 128
-165 61 -311 114 -325 118 -83 27 -463 161 -480 170 -39 21 -43 46 -17 104 36
78 84 148 178 261 114 137 386 412 551 557 75 66 142 133 148 149 20 47 -4 98
-60 127 -105 55 -261 7 -455 -141 -159 -121 -366 -333 -528 -542 -38 -49 -74
-90 -80 -90 -15 0 -32 58 -91 313 -59 257 -92 615 -82 878 7 183 7 182 -84
223 -50 23 -62 24 -105 9z"/>
<path d="M14115 13673 c-33 -9 -105 -67 -200 -162 -49 -50 -97 -91 -106 -91
-10 0 -107 17 -216 39 -291 57 -275 55 -309 25 l-28 -27 27 -21 c14 -11 98
-54 186 -95 88 -40 165 -79 170 -85 7 -9 -13 -35 -73 -95 l-83 -83 -68 21
c-87 27 -106 26 -135 -4 -29 -31 -23 -38 65 -86 98 -52 120 -73 163 -157 53
-101 61 -108 96 -81 31 25 32 41 5 131 l-20 69 72 77 c84 89 93 96 107 79 11
-14 152 -314 152 -325 0 -4 9 -18 19 -31 15 -20 21 -22 39 -12 45 24 45 38 2
263 -23 117 -44 230 -47 250 -5 36 -2 41 105 153 111 116 142 162 142 209 0
21 -27 50 -42 45 -2 -1 -12 -4 -23 -6z"/>
<path d="M17060 12942 c-58 -29 -70 -66 -70 -222 0 -443 160 -915 426 -1261
200 -260 497 -448 710 -449 90 0 89 4 75 -226 -6 -109 -17 -253 -23 -319 -6
-66 -12 -246 -12 -400 -1 -305 10 -407 60 -549 24 -70 74 -167 102 -198 19
-23 65 -23 84 0 24 27 54 91 77 165 33 108 92 446 111 632 4 50 15 160 24 245
39 406 56 939 44 1445 -11 479 -50 823 -114 1003 -19 51 -35 53 -92 12 -56
-40 -88 -100 -120 -222 l-27 -103 3 -410 c3 -430 -4 -528 -39 -597 -11 -21
-29 -43 -42 -50 -29 -16 -166 -15 -237 2 -175 41 -331 188 -439 414 -60 123
-71 156 -191 556 -97 323 -164 488 -215 528 -33 27 -49 27 -95 4z"/>
<path d="M13820 12699 c-34 -18 -82 -51 -106 -74 l-44 -42 -2 -159 c-7 -459 3
-707 38 -968 44 -324 136 -556 250 -622 85 -50 185 -42 244 21 23 25 25 35 29
143 5 178 -23 342 -139 817 -128 519 -158 665 -175 843 -5 46 -12 72 -20 72
-6 0 -40 -14 -75 -31z"/>
<path d="M8540 12645 c-159 -24 -250 -51 -394 -119 -364 -170 -607 -458 -672
-795 -39 -208 8 -502 107 -667 66 -110 190 -200 323 -236 441 -120 1014 200
1247 696 109 233 111 471 6 726 -46 112 -105 205 -175 276 -122 123 -227 151
-442 119z m238 -335 c135 -98 179 -380 92 -597 -80 -199 -235 -380 -426 -497
-178 -109 -421 -117 -553 -18 -75 56 -111 156 -111 308 0 120 63 226 249 418
165 169 323 295 462 367 67 34 118 48 185 48 52 1 67 -3 102 -29z"/>
<path d="M10470 12645 c-524 -78 -967 -450 -1056 -885 -23 -116 -15 -372 15
-484 53 -200 152 -331 303 -405 220 -108 473 -93 751 45 136 68 232 138 347
253 154 154 256 321 311 506 19 66 24 103 24 210 0 111 -4 144 -28 229 -51
186 -145 350 -249 439 -119 100 -217 122 -418 92z m230 -326 c21 -12 53 -45
73 -76 54 -82 70 -147 71 -293 1 -106 -3 -136 -23 -195 -62 -186 -193 -359
-371 -489 -139 -103 -252 -140 -403 -134 -117 5 -169 23 -235 82 -47 43 -71
88 -88 171 -30 138 -12 222 76 349 62 91 279 314 387 399 91 72 231 158 303
185 74 28 160 29 210 1z"/>
<path d="M4772 9112 c-9 -7 -12 -48 -10 -173 l3 -164 7168 -3 7167 -2 11 27
c7 19 8 74 2 173 l-8 145 -7160 2 c-3938 2 -7166 -1 -7173 -5z"/>
</g>
</svg>
